<svg xmlns="http://www.w3.org/2000/svg" xmlns:xlink="http://www.w3.org/1999/xlink" width="590" zoomAndPan="magnify" viewBox="0 0 442.5 434.999989" height="580" preserveAspectRatio="xMidYMid meet" version="1.0"><defs><clipPath id="ce148be8d4"><path d="M 0 0.246094 L 442 0.246094 L 442 434.753906 L 0 434.753906 Z M 0 0.246094 " clip-rule="nonzero"/></clipPath></defs><g clip-path="url(#ce148be8d4)"><path fill="#ffffff" d="M 0 0.246094 L 442 0.246094 L 442 434.753906 L 0 434.753906 Z M 0 0.246094 " fill-opacity="1" fill-rule="nonzero"/><path fill="#ffffff" d="M 0 0.246094 L 442 0.246094 L 442 434.753906 L 0 434.753906 Z M 0 0.246094 " fill-opacity="1" fill-rule="nonzero"/></g><path fill="#000000" d="M 440.167969 264.09375 C 440.167969 253.078125 435.78125 242.816406 428.246094 235.230469 C 436.808594 225.863281 441.15625 213.292969 439.964844 200.242188 C 437.835938 176.949219 416.820312 158.695312 392.152344 158.695312 L 278.882812 158.695312 C 284.457031 141.667969 293.445312 110.457031 293.445312 85.386719 C 293.445312 45.636719 259.644531 12.078125 238.421875 12.078125 C 219.367188 12.078125 205.742188 22.78125 205.171875 23.238281 C 202.988281 25 201.742188 27.621094 201.742188 30.40625 L 201.742188 92.535156 L 148.921875 206.914062 L 146.722656 208.011719 L 146.722656 204.511719 C 146.722656 199.453125 142.613281 195.347656 137.550781 195.347656 L 45.851562 195.347656 C 20.578125 195.347656 0 215.914062 0 241.167969 L 0 387.785156 C 0 413.039062 20.578125 433.601562 45.851562 433.601562 L 100.871094 433.601562 C 120.714844 433.601562 137.644531 420.957031 144.042969 403.324219 C 159.304688 411.167969 179.84375 415.292969 192.589844 415.292969 L 360.9375 415.292969 C 380.910156 415.292969 398.367188 401.824219 402.476562 383.273438 C 404.585938 373.726562 403.359375 364.105469 399.175781 355.75 C 412.710938 348.929688 421.828125 334.984375 421.828125 319.074219 C 421.828125 312.585938 420.339844 306.375 417.515625 300.75 C 431.050781 293.929688 440.167969 279.984375 440.167969 264.09375 Z M 100.871094 415.273438 L 45.851562 415.273438 C 30.664062 415.273438 18.339844 402.941406 18.339844 387.785156 L 18.339844 241.167969 C 18.339844 226.011719 30.683594 213.675781 45.851562 213.675781 L 45.851562 213.769531 L 128.34375 213.769531 L 128.34375 222.929688 C 128.34375 222.988281 128.382812 223.023438 128.382812 223.078125 L 128.382812 387.785156 C 128.382812 402.941406 116.019531 415.273438 100.871094 415.273438 Z M 401.46875 286.726562 C 397.929688 287.132812 394.9375 289.53125 393.820312 292.921875 C 392.703125 296.296875 393.617188 300.035156 396.222656 302.472656 C 400.898438 306.886719 403.46875 312.789062 403.46875 319.09375 C 403.46875 330.640625 394.738281 340.371094 383.148438 341.691406 C 379.605469 342.09375 376.617188 344.496094 375.5 347.886719 C 374.378906 351.257812 375.296875 354.996094 377.902344 357.433594 C 383.953125 363.132812 386.375 371.125 384.558594 379.316406 C 382.304688 389.523438 372.363281 396.949219 360.917969 396.949219 L 192.574219 396.949219 C 178.945312 396.949219 157.011719 391.0625 146.722656 383.421875 L 146.722656 228.558594 L 159.945312 221.960938 C 161.796875 221.027344 163.285156 219.484375 164.164062 217.597656 L 219.183594 98.472656 C 219.734375 97.28125 220.027344 95.960938 220.027344 94.640625 L 220.027344 35.480469 C 223.84375 33.375 230.464844 30.496094 238.367188 30.496094 C 248.417969 30.496094 275.050781 55.476562 275.050781 85.476562 C 275.050781 117.714844 257.496094 164.230469 257.3125 164.6875 C 256.25 167.492188 256.617188 170.664062 258.339844 173.136719 C 260.066406 175.609375 262.871094 177.09375 265.898438 177.09375 L 392.097656 177.09375 C 407.390625 177.09375 420.378906 188.019531 421.660156 201.984375 C 422.632812 212.429688 417.644531 222.363281 408.621094 227.917969 C 405.796875 229.640625 404.144531 232.773438 404.273438 236.070312 C 404.382812 239.371094 406.292969 242.339844 409.246094 243.859375 C 416.984375 247.820312 421.789062 255.589844 421.789062 264.132812 C 421.769531 275.675781 413.042969 285.410156 401.46875 286.726562 Z M 401.46875 286.726562 " fill-opacity="1" fill-rule="nonzero"/></svg>